# xmcd CD database file
#
# Track frame offsets:
#	150
#	14815
#	29350
#	40921
#	54888
#	67650
#	82689
#	97703
#	112984
#	127473
#	143124
#	157329
#	172492
#	186699
#	200601
#	212415
#	224821
#	236106
#	245008
#	256216
#	267822
#	279574
#	292861
#
# Disc length: 4113 seconds
#
# Revision: 3
# Processed by: cddbd v1.5.2PL0 Copyright (c) Steve Scherf et al.
# Submitted via: CDex 1.51
#
DISCID=63100f17
DTITLE=Frank Sinatra - Jazz !!!
DYEAR=2003
DGENRE=Jazz
TTITLE0=Sweet Lorraine  [1946]
TTITLE1=That's How Much I Love You  [1946]
TTITLE2=You Can Take My World For It, Baby  [1946]
TTITLE3=One Formy Baby  [1947]
TTITLE4=S' Posin'  [1947]
TTITLE5=Mean To Me  [1947]
TTITLE6=I've Got A Crush On You  [1947]
TTITLE7=Body And Soul  [1947]
TTITLE8=I Went Down To Virginia  [1947]
TTITLE9=A Little Learnin' Is A Dangerous Thing/1  [1947]
TTITLE10=A Little Learnin' Is A Dangerous Thing/2  [1947]
TTITLE11=Why Can't You Behave  [1948]
TTITLE12=Bop! Goes My Heart  [1948]
TTITLE13=The Hucklebuck  [1949]
TTITLE14=You Do Something To Me  [1950]
TTITLE15=Lover  [1950]
TTITLE16=When You're Smiling  [1950]
TTITLE17=It's Only A Paper Moon  [1950]
TTITLE18=My Blue Heaven  [1950]
TTITLE19=The Continental  [1950]
TTITLE20=Castle Rock  [1951]
TTITLE21=Farewell, Farewell To Love  [1951]
TTITLE22=The Birth Of The Blues  [1952]
EXTD=YEAR: 2003
EXTT0=
EXTT1=
EXTT2=
EXTT3=
EXTT4=
EXTT5=
EXTT6=
EXTT7=
EXTT8=
EXTT9=
EXTT10=
EXTT11=
EXTT12=
EXTT13=
EXTT14=
EXTT15=
EXTT16=
EXTT17=
EXTT18=
EXTT19=
EXTT20=
EXTT21=
EXTT22=
PLAYORDER=
